<?xml version="1.0" encoding="UTF-8" standalone="no"?>
<!-- Created with Inkscape (http://www.inkscape.org/) -->

<svg
   xmlns:osb="http://www.openswatchbook.org/uri/2009/osb"
   xmlns:dc="http://purl.org/dc/elements/1.1/"
   xmlns:cc="http://creativecommons.org/ns#"
   xmlns:rdf="http://www.w3.org/1999/02/22-rdf-syntax-ns#"
   xmlns:svg="http://www.w3.org/2000/svg"
   xmlns="http://www.w3.org/2000/svg"
   xmlns:xlink="http://www.w3.org/1999/xlink"
   xmlns:sodipodi="http://sodipodi.sourceforge.net/DTD/sodipodi-0.dtd"
   xmlns:inkscape="http://www.inkscape.org/namespaces/inkscape"
   width="21.27cm"
   height="21.27cm"
   viewBox="0 0 212.70001 212.70001"
   version="1.1"
   id="svg8"
   inkscape:version="0.92.0 r15299"
   sodipodi:docname="icon.svg">
  <defs
     id="defs2">
    <linearGradient
       inkscape:collect="always"
       id="linearGradient6129">
      <stop
         style="stop-color:#ffff00;stop-opacity:1;"
         offset="0"
         id="stop6125" />
      <stop
         id="stop6139"
         offset="0.14124465"
         style="stop-color:#ffff4e;stop-opacity:1" />
      <stop
         style="stop-color:#ffff00;stop-opacity:1"
         offset="0.25980595"
         id="stop6143" />
      <stop
         id="stop6137"
         offset="0.42899758"
         style="stop-color:#ffff73;stop-opacity:1" />
      <stop
         style="stop-color:#ffff13;stop-opacity:1"
         offset="0.57742345"
         id="stop6141" />
      <stop
         id="stop6133"
         offset="0.74040604"
         style="stop-color:#ffff69;stop-opacity:1" />
      <stop
         style="stop-color:#ffff00;stop-opacity:1"
         offset="0.88694519"
         id="stop6135" />
      <stop
         style="stop-color:#ffff49;stop-opacity:1"
         offset="1"
         id="stop6127" />
    </linearGradient>
    <linearGradient
       id="linearGradient6064"
       osb:paint="solid">
      <stop
         style="stop-color:#0000ff;stop-opacity:1;"
         offset="0"
         id="stop6062" />
    </linearGradient>
    <linearGradient
       inkscape:collect="always"
       id="linearGradient6028">
      <stop
         style="stop-color:#000000;stop-opacity:1;"
         offset="0"
         id="stop6024" />
      <stop
         style="stop-color:#000000;stop-opacity:0;"
         offset="1"
         id="stop6026" />
    </linearGradient>
    <linearGradient
       id="linearGradient5978"
       osb:paint="solid">
      <stop
         style="stop-color:#ffff00;stop-opacity:1;"
         offset="0"
         id="stop5976" />
    </linearGradient>
    <linearGradient
       inkscape:collect="always"
       xlink:href="#linearGradient6028"
       id="linearGradient6032"
       gradientUnits="userSpaceOnUse"
       x1="111.125"
       y1="348.40475"
       x2="126.24406"
       y2="-40.910717"
       gradientTransform="translate(0.7349912,0.13363476)" />
    <linearGradient
       inkscape:collect="always"
       xlink:href="#linearGradient6129"
       id="linearGradient6131"
       x1="155.85889"
       y1="166.25558"
       x2="676.31024"
       y2="974.37762"
       gradientUnits="userSpaceOnUse"
       gradientTransform="matrix(0.23569706,0,0,0.20238867,18.200582,76.810875)" />
    <filter
       style="color-interpolation-filters:sRGB"
       inkscape:label="Noise Fill"
       id="filter7607">
      <feTurbulence
         type="fractalNoise"
         baseFrequency="5.98959 5.9948"
         numOctaves="1"
         seed="90"
         result="turbulence"
         id="feTurbulence7591" />
      <feComposite
         in="SourceGraphic"
         in2="turbulence"
         operator="in"
         result="composite1"
         id="feComposite7593" />
      <feColorMatrix
         values="1 0 0 0 0 0 1 0 0 0 0 0 1 0 0 0 0 0 2.91 -1.04167 "
         result="color"
         id="feColorMatrix7595" />
      <feFlood
         flood-opacity="0.74902"
         flood-color="rgb(3,187,255)"
         result="flood"
         id="feFlood7597" />
      <feMerge
         result="merge"
         id="feMerge7603">
        <feMergeNode
           in="flood"
           id="feMergeNode7599" />
        <feMergeNode
           in="color"
           id="feMergeNode7601" />
      </feMerge>
      <feComposite
         in2="SourceGraphic"
         operator="in"
         result="composite2"
         id="feComposite7605" />
    </filter>
  </defs>
  <sodipodi:namedview
     id="base"
     pagecolor="#ffffff"
     bordercolor="#666666"
     borderopacity="1.0"
     inkscape:pageopacity="0.0"
     inkscape:pageshadow="2"
     inkscape:zoom="0.24748738"
     inkscape:cx="558.86106"
     inkscape:cy="-67.091181"
     inkscape:document-units="mm"
     inkscape:current-layer="layer1"
     showgrid="false"
     inkscape:window-width="1040"
     inkscape:window-height="1008"
     inkscape:window-x="-7"
     inkscape:window-y="0"
     inkscape:window-maximized="1"
     inkscape:snap-page="false"
     inkscape:snap-grids="false"
     inkscape:snap-to-guides="false"
     units="cm" />
  <metadata
     id="metadata5">
    <rdf:RDF>
      <cc:Work
         rdf:about="">
        <dc:format>image/svg+xml</dc:format>
        <dc:type
           rdf:resource="http://purl.org/dc/dcmitype/StillImage" />
        <dc:title></dc:title>
      </cc:Work>
    </rdf:RDF>
  </metadata>
  <g
     inkscape:groupmode="layer"
     id="layer3"
     inkscape:label="Layer 3"
     style="display:inline"
     transform="translate(0,-84.30026)">
    <rect
       style="display:inline;fill:#20b0ec;fill-opacity:0.94117647;stroke-width:0.26458332;filter:url(#filter7607)"
       id="rect6034"
       width="374.19644"
       height="439.96429"
       x="-53.672619"
       y="-67.369049" />
  </g>
  <g
     inkscape:groupmode="layer"
     id="layer4"
     inkscape:label="Layer 4"
     transform="translate(0,-84.30026)"
     style="display:inline" />
  <g
     inkscape:groupmode="layer"
     id="layer2"
     inkscape:label="Layer 2"
     style="display:inline"
     transform="translate(0,-84.30026)">
    <rect
       id="rect3708"
       width="305.40475"
       height="369.66074"
       x="-27.991198"
       y="-40.021126"
       style="fill:url(#linearGradient6032);fill-opacity:1;stroke:#000000;stroke-width:0.58200002;stroke-miterlimit:4;stroke-dasharray:none;stroke-opacity:1" />
  </g>
  <g
     inkscape:label="Layer 1"
     inkscape:groupmode="layer"
     id="layer1"
     style="display:inline"
     transform="translate(0,-84.30026)">
    <path
       style="fill:url(#linearGradient6131);fill-opacity:1;stroke:#000000;stroke-width:5.82460213;stroke-miterlimit:4;stroke-dasharray:none;stroke-opacity:1"
       d="m 78.797382,283.83614 c -1.111146,-0.43872 -3.890327,-2.4796 -6.175964,-4.53529 -5.167433,-4.64757 -11.292228,-15.0839 -16.335402,-27.83467 -7.276343,-18.39694 -9.844429,-30.93433 -12.515655,-61.1014 -0.577313,-6.5198 -1.341744,-13.92907 -1.69873,-16.46505 -0.85442,-6.0696 -0.829501,-24.06542 0.04378,-31.61327 1.320876,-11.4165 4.900729,-26.35745 8.043359,-33.56987 3.406983,-7.81914 11.999958,-12.605918 19.424972,-10.820825 3.474018,0.83521 8.55782,4.727045 9.244746,7.077185 0.258532,0.88451 -0.85085,5.29391 -2.954902,11.74466 -6.646397,20.37697 -9.079759,32.38471 -9.124014,45.02364 -0.02842,8.11718 0.785395,13.85278 2.251343,15.86699 0.497812,0.68399 2.001719,0.2471 8.435091,-2.45042 14.276771,-5.98627 27.935104,-14.60144 41.671454,-26.28482 8.84376,-7.52202 17.16849,-16.08198 22.07067,-22.69433 6.03624,-8.14205 6.61126,-8.72609 9.77417,-9.92747 9.60895,-3.64982 20.9176,6.41646 19.37758,17.24876 -0.4306,3.02877 -3.41501,7.62654 -14.18361,21.85105 -9.95299,13.14715 -22.84832,20.54145 -58.061444,33.29295 l -11.689892,4.23319 2.351564,1.03593 c 3.688034,1.62469 11.394402,4.16551 27.946352,9.21402 29.76732,9.07932 39.5194,14.38435 49.28014,26.80788 8.96834,11.41495 16.74333,27.26652 21.62182,44.08236 1.45529,5.01626 1.47696,5.37844 0.40561,6.78244 -2.06883,2.71124 -4.84643,3.53119 -11.96215,3.53119 -6.05568,0 -6.7605,-0.12838 -11.11143,-2.0239 -4.51333,-1.96626 -4.72317,-2.15665 -7.36878,-6.68618 -1.49777,-2.56426 -4.19467,-8.41907 -5.99315,-13.0107 -1.79848,-4.59162 -4.12799,-9.99982 -5.17667,-12.01819 -4.13575,-7.95982 -11.21052,-14.57658 -22.4717,-21.01688 -7.2631,-4.1538 -24.644794,-11.59062 -35.354559,-15.12661 l -7.744336,-2.5569 -0.818872,6.43962 c -1.605319,12.62422 -1.76374,18.29609 -0.626465,22.42894 1.504942,5.46894 5.225737,12.04832 13.197048,23.336 3.816589,5.40441 7.352965,10.82947 7.858614,12.05566 0.89608,2.17297 0.86795,2.27068 -1.11042,3.85758 -3.560276,2.85581 -7.871386,4.28671 -13.44925,4.46393 -3.239533,0.10294 -5.775102,-0.12556 -7.070913,-0.6372 z"
       id="path3711"
       inkscape:connector-curvature="0" />
  </g>
</svg>
